<?xml version="1.0" encoding="UTF-8"?><svg xmlns="http://www.w3.org/2000/svg" xmlns:xlink="http://www.w3.org/1999/xlink" viewBox="0 0 431.87 353.78"><defs><style>.f,.g,.h{stroke:#666;stroke-miterlimit:10;stroke-width:5px;}.f,.h{fill:none;}.g{fill:url(#e);}.i{fill:url(#d);}.j{fill:#00c9a7;}.h{stroke-linecap:round;}</style><linearGradient id="d" x1="16.75" y1="329.51" x2="424.75" y2="329.51" gradientTransform="matrix(1, 0, 0, 1, 0, 0)" gradientUnits="userSpaceOnUse"><stop offset="0" stop-color="gray" stop-opacity=".4"/><stop offset="1" stop-color="gray" stop-opacity=".4"/></linearGradient><linearGradient id="e" x1="306.63" y1="234.22" x2="351.69" y2="234.22" xlink:href="#d"/></defs><g id="a"/><g id="b"><g id="c"><g><path class="i" d="M424.75,327.11c0,14.73-91.33,26.67-204,26.67s-204-11.94-204-26.67c0-9.04,34.48-17.04,87.2-21.86,3.55,10.47,13.46,18.01,25.13,18.01h199.67l-3.59,.3c11.32,0,20.99-7.09,24.79-17.08,45.66,4.89,74.8,12.32,74.8,20.63Z"/><g><path class="g" d="M351.69,171.42v125.61c0,3.33-.61,6.52-1.74,9.45-3.8,9.99-13.47,17.08-24.79,17.08l3.59-.3c-12.9,0-19.9-8.66-21.66-20.31-.31-1.99-.46-4.08-.46-6.22V144.89h18.53c14.65,0,26.53,11.88,26.53,26.53Z"/><path class="f" d="M102.55,211.82v84.91c0,2.98,.49,5.85,1.4,8.52,3.55,10.47,13.46,18.01,25.13,18.01h199.67"/><path class="f" d="M102.55,141.37v-60.97c0-14.65,11.88-26.53,26.53-26.53h151.02c14.65,0,26.53,11.88,26.53,26.53v64.49"/></g><g><polyline class="h" points="148.11 147.33 189.89 105.55 231.67 147.33"/><polyline class="h" points="220.26 133.93 241.67 112.52 263.07 133.93"/></g><g><line class="h" x1="138.54" y1="190.89" x2="153.65" y2="190.89"/><line class="h" x1="179.32" y1="190.89" x2="272.65" y2="190.89"/></g><g><line class="h" x1="138.54" y1="226.89" x2="153.65" y2="226.89"/><line class="h" x1="179.32" y1="226.89" x2="272.65" y2="226.89"/></g><g><line class="h" x1="138.54" y1="262.89" x2="153.65" y2="262.89"/><line class="h" x1="179.32" y1="262.89" x2="272.65" y2="262.89"/></g><polygon class="j" points="405.2 33.78 371.42 33.78 371.42 0 355.42 0 355.42 33.78 321.65 33.78 321.65 49.78 355.42 49.78 355.42 83.56 371.42 83.56 371.42 49.78 405.2 49.78 405.2 33.78"/><polygon class="j" points="123.78 172.27 106.53 172.27 106.53 155.03 98.36 155.03 98.36 172.27 81.12 172.27 81.12 180.44 98.36 180.44 98.36 197.69 106.53 197.69 106.53 180.44 123.78 180.44 123.78 172.27"/><polygon class="j" points="417.65 256.36 400.4 256.36 400.4 239.11 392.23 239.11 392.23 256.36 374.98 256.36 374.98 264.53 392.23 264.53 392.23 281.78 400.4 281.78 400.4 264.53 417.65 264.53 417.65 256.36"/><polygon class="j" points="74.67 34.67 62.09 34.67 62.09 22.09 56.13 22.09 56.13 34.67 43.56 34.67 43.56 40.62 56.13 40.62 56.13 53.2 62.09 53.2 62.09 40.62 74.67 40.62 74.67 34.67"/><polygon class="j" points="31.11 246.22 18.53 246.22 18.53 233.65 12.58 233.65 12.58 246.22 0 246.22 0 252.18 12.58 252.18 12.58 264.76 18.53 264.76 18.53 252.18 31.11 252.18 31.11 246.22"/><circle class="j" cx="26.09" cy="124.89" r="8.44"/><circle class="j" cx="423.42" cy="84.89" r="8.44"/></g></g></g></svg>