<?xml version="1.0" encoding="utf-8"?>
<!-- Generator: Adobe Illustrator 23.0.2, SVG Export Plug-In . SVG Version: 6.00 Build 0)  -->
<svg version="1.1" xmlns="http://www.w3.org/2000/svg" xmlns:xlink="http://www.w3.org/1999/xlink" x="0px" y="0px"
	 viewBox="0 0 521.38 521.38" enable-background="new 0 0 521.38 521.38" xml:space="preserve">
<g id="profil" display="none">
	
		<path display="inline" fill="none" stroke="#FFFFFF" stroke-width="20" stroke-linecap="round" stroke-linejoin="round" stroke-miterlimit="10" d="
		M429.41,498.8H91.35c0,0,10.52-135.09,168.84-135.09S429.41,498.8,429.41,498.8z"/>
	
		<circle display="inline" fill="none" stroke="#FFFFFF" stroke-width="20" stroke-linecap="round" stroke-linejoin="round" stroke-miterlimit="10" cx="260.19" cy="193.21" r="170.5"/>
</g>
<g id="dokumente" display="none">
	<path display="inline" fill="none" stroke="#FFFFFF" stroke-miterlimit="10" d="M260.69,29.69"/>
	<path display="inline" fill="none" stroke="#FFFFFF" stroke-width="20" stroke-miterlimit="10" d="M260.8,29.69
		c0,0-166.1,180.06-166.1,322.44s138.19,146.56,166.1,146.56s166.1,0,166.1-146.56S260.8,29.69,260.8,29.69z"/>
</g>
<g id="projekte" display="none">
	<polygon display="inline" fill="none" stroke="#FFFFFF" stroke-width="20" stroke-miterlimit="10" points="260.69,34.69 
		22.69,435.69 498.69,435.69 	"/>
</g>
<g id="rechnungen" display="none">
	
		<rect x="22.69" y="144.69" display="inline" fill="none" stroke="#FFFFFF" stroke-width="20" stroke-miterlimit="10" width="476" height="231"/>
	<circle display="inline" fill="none" stroke="#FFFFFF" stroke-width="20" stroke-miterlimit="10" cx="260.69" cy="259.69" r="77"/>
</g>
<g id="mobile" display="none">
	
		<path display="inline" fill="none" stroke="#FFFFFF" stroke-width="20" stroke-linecap="round" stroke-linejoin="round" stroke-miterlimit="10" d="
		M379.43,498.69H141.96c-17.82,0-32.26-14.44-32.26-32.26V52.96c0-17.82,14.44-32.26,32.26-32.26h237.47
		c17.82,0,32.26,14.44,32.26,32.26v413.47C411.69,484.25,397.25,498.69,379.43,498.69z"/>
	
		<line display="inline" fill="none" stroke="#FFFFFF" stroke-width="20" stroke-linecap="round" stroke-linejoin="round" stroke-miterlimit="10" x1="209.69" y1="451.69" x2="311.69" y2="451.69"/>
</g>
<g id="zehnerle">
	
		<circle fill="none" stroke="#FFFFFF" stroke-width="20" stroke-linecap="round" stroke-linejoin="round" stroke-miterlimit="10" cx="260.69" cy="229.69" r="168"/>
	
		<polyline fill="none" stroke="#FFFFFF" stroke-width="20" stroke-linecap="round" stroke-linejoin="round" stroke-miterlimit="10" points="
		424.19,272.28 499.11,347.19 402.38,369.01 378.19,468.11 303.28,393.19 	"/>
	
		<polyline fill="none" stroke="#FFFFFF" stroke-width="20" stroke-linecap="round" stroke-linejoin="round" stroke-miterlimit="10" points="
		97.19,272.28 22.28,347.19 119.01,369.01 143.19,468.11 218.11,393.19 	"/>
</g>
<g id="einstellungen" display="none">
	
		<path display="inline" fill="none" stroke="#FFFFFF" stroke-width="20" stroke-linecap="round" stroke-linejoin="round" stroke-miterlimit="10" d="
		M370.69,49.6v211.39l-110.5,63.8l-110.5-63.8V50.13c-75.52,39.89-127,119.21-127,210.56c0,131.44,106.56,238,238,238
		s238-106.56,238-238C498.69,168.94,446.76,89.32,370.69,49.6z"/>
</g>
<g id="favouriten" display="none">
	
		<polygon display="inline" fill="none" stroke="#FFFFFF" stroke-width="20" stroke-linecap="round" stroke-linejoin="round" stroke-miterlimit="10" points="
		260.69,35.87 333.82,184.04 497.34,207.8 379.01,323.14 406.95,485.99 260.69,409.1 114.44,485.99 142.37,323.14 24.05,207.8 
		187.57,184.04 	"/>
</g>
<g id="suche" display="none">
	
		<circle display="inline" fill="none" stroke="#FFFFFF" stroke-width="20" stroke-linecap="round" stroke-linejoin="round" stroke-miterlimit="10" cx="260.69" cy="229.69" r="168"/>
	
		<line display="inline" fill="none" stroke="#FFFFFF" stroke-width="20" stroke-linecap="round" stroke-linejoin="round" stroke-miterlimit="10" x1="378.76" y1="351.28" x2="498.93" y2="471.45"/>
</g>
<g id="netzwerk" display="none">
	
		<circle display="inline" fill="none" stroke="#FFFFFF" stroke-width="20" stroke-linecap="round" stroke-linejoin="round" stroke-miterlimit="10" cx="72.51" cy="398.44" r="49.81"/>
	
		<circle display="inline" fill="none" stroke="#FFFFFF" stroke-width="20" stroke-linecap="round" stroke-linejoin="round" stroke-miterlimit="10" cx="448.88" cy="398.44" r="49.81"/>
	
		<circle display="inline" fill="none" stroke="#FFFFFF" stroke-width="20" stroke-linecap="round" stroke-linejoin="round" stroke-miterlimit="10" cx="260.69" cy="84.95" r="49.81"/>
	
		<circle display="inline" fill="none" stroke="#FFFFFF" stroke-width="20" stroke-linecap="round" stroke-linejoin="round" stroke-miterlimit="10" cx="260.69" cy="298.81" r="49.81"/>
	
		<line display="inline" fill="none" stroke="#FFFFFF" stroke-width="20" stroke-linecap="round" stroke-linejoin="round" stroke-miterlimit="10" x1="116.79" y1="375.51" x2="216.41" y2="322.53"/>
	
		<line display="inline" fill="none" stroke="#FFFFFF" stroke-width="20" stroke-linecap="round" stroke-linejoin="round" stroke-miterlimit="10" x1="404.6" y1="374.72" x2="304.97" y2="321.74"/>
	
		<line display="inline" fill="none" stroke="#FFFFFF" stroke-width="20" stroke-linecap="round" stroke-linejoin="round" stroke-miterlimit="10" x1="260.69" y1="248.69" x2="260.69" y2="134.69"/>
</g>
<g id="chat" display="none">
	
		<path display="inline" fill="none" stroke="#FFFFFF" stroke-width="20" stroke-linecap="round" stroke-linejoin="round" stroke-miterlimit="10" d="
		M498.94,101.03l0,242.78c0,17.82-14.44,32.26-32.26,32.26l-206.31,0L93.69,455.69l51.08-79.61l-88.8,0
		c-17.82,0-32.26-14.44-32.26-32.26l0-242.78c0-17.82,14.44-32.26,32.26-32.26l410.7,0C484.49,68.77,498.94,83.21,498.94,101.03z"/>
</g>
<g id="produkte" display="none">
	
		<polygon display="inline" fill="none" stroke="#FFFFFF" stroke-width="20" stroke-linecap="round" stroke-linejoin="round" stroke-miterlimit="10" points="
		431.93,399.99 431.93,121.31 260.74,22.48 89.55,121.31 89.55,399.99 260.74,498.82 	"/>
	
		<polyline display="inline" fill="none" stroke="#FFFFFF" stroke-width="20" stroke-linecap="round" stroke-linejoin="round" stroke-miterlimit="10" points="
		89.55,122.99 260.74,221.82 431.93,122.99 	"/>
	
		<path display="inline" fill="none" stroke="#FFFFFF" stroke-width="20" stroke-linecap="round" stroke-linejoin="round" stroke-miterlimit="10" d="
		M260.69,221.69v277V221.69z"/>
</g>
<g id="hilfslinien">
</g>
</svg>
