<?xml version="1.0" encoding="UTF-8"?>
<svg id="Ebene_2" xmlns="http://www.w3.org/2000/svg" version="1.1" viewBox="0 0 509.1 509.1">
  <!-- Generator: Adobe Illustrator 29.6.1, SVG Export Plug-In . SVG Version: 2.1.1 Build 9)  -->
  <defs>
    <style>
      .st0 {
        fill: #fff;
      }
    </style>
  </defs>
  <path class="st0" d="M501.4,489.9c-10.3-46.8-40.2-81.3-88.7-102.5-23.5-10.3-51-17.4-83.1-21.6,67.6-29.2,115-96.5,115-174.6S359.4,1,254.6,1,64.5,86.3,64.5,191.1s47.4,145.5,115,174.6c-32.1,4.2-59.6,11.4-83.1,21.6-48.5,21.2-78.3,55.7-88.7,102.5l-4,18.2h501.8l-4-18.2ZM94.5,191.1c0-88.3,71.8-160.1,160.1-160.1s160.1,71.8,160.1,160.1-71.8,160.1-160.1,160.1-160.1-71.8-160.1-160.1ZM42.6,478.1c11.2-28,32.9-48.8,65.9-63.3,35.6-15.6,84.8-23.5,146.2-23.5s110.5,7.9,146.1,23.5c33,14.4,54.7,35.3,65.9,63.3H42.6Z"/>
</svg>