<?xml version="1.0" encoding="utf-8"?>
<!-- Generator: Adobe Illustrator 23.0.2, SVG Export Plug-In . SVG Version: 6.00 Build 0)  -->
<svg version="1.1" xmlns="http://www.w3.org/2000/svg" xmlns:xlink="http://www.w3.org/1999/xlink" x="0px" y="0px"
	 viewBox="0 0 521.4 521.4" style="enable-background:new 0 0 521.4 521.4;" xml:space="preserve">
<style type="text/css">
	.st0{display:none;}
	.st1{display:inline;fill:none;stroke:#FFFFFF;stroke-width:20;stroke-linecap:round;stroke-linejoin:round;stroke-miterlimit:10;}
	.st2{display:inline;fill:none;stroke:#FFFFFF;stroke-miterlimit:10;}
	.st3{display:inline;fill:none;stroke:#FFFFFF;stroke-width:20;stroke-miterlimit:10;}
	
		.st4{display:inline;fill:#FFFFFF;stroke:#FFFFFF;stroke-width:20;stroke-linecap:round;stroke-linejoin:round;stroke-miterlimit:10;}
	.st5{fill:none;stroke:#FFFFFF;stroke-width:20;stroke-linecap:round;stroke-linejoin:round;stroke-miterlimit:10;}
</style>
<g id="Ebene_1">
	<g id="profil" class="st0">
		<path class="st1" d="M429.4,498.8H91.3c0,0,10.5-135.1,168.8-135.1S429.4,498.8,429.4,498.8z"/>
		<circle class="st1" cx="260.2" cy="193.2" r="170.5"/>
	</g>
	<g id="dokumente" class="st0">
		<path class="st2" d="M260.7,29.7"/>
		<path class="st3" d="M260.8,29.7c0,0-166.1,180.1-166.1,322.4s138.2,146.6,166.1,146.6s166.1,0,166.1-146.6S260.8,29.7,260.8,29.7
			z"/>
	</g>
	<g id="projekte" class="st0">
		<polygon class="st3" points="260.7,34.7 22.7,435.7 498.7,435.7 		"/>
	</g>
	<g id="rechnungen" class="st0">
		<rect x="22.7" y="144.7" class="st3" width="476" height="231"/>
		<circle class="st3" cx="260.7" cy="259.7" r="77"/>
	</g>
	<g id="mobile" class="st0">
		<path class="st1" d="M379.4,498.7H142c-17.8,0-32.3-14.4-32.3-32.3V53c0-17.8,14.4-32.3,32.3-32.3h237.5
			c17.8,0,32.3,14.4,32.3,32.3v413.5C411.7,484.3,397.3,498.7,379.4,498.7z"/>
		<line class="st1" x1="209.7" y1="451.7" x2="311.7" y2="451.7"/>
	</g>
	<g id="zehnerle" class="st0">
		<circle class="st1" cx="260.7" cy="229.7" r="168"/>
		<polyline class="st1" points="424.2,272.3 499.1,347.2 402.4,369 378.2,468.1 303.3,393.2 		"/>
		<polyline class="st1" points="97.2,272.3 22.3,347.2 119,369 143.2,468.1 218.1,393.2 		"/>
	</g>
	<g id="einstellungen" class="st0">
		<path class="st1" d="M370.7,49.6V261l-110.5,63.8L149.7,261V50.1C74.2,90,22.7,169.3,22.7,260.7c0,131.4,106.6,238,238,238
			s238-106.6,238-238C498.7,168.9,446.8,89.3,370.7,49.6z"/>
	</g>
	<g id="favouriten" class="st0">
		<polygon class="st4" points="260.7,35.9 333.8,184 497.3,207.8 379,323.1 407,486 260.7,409.1 114.4,486 142.4,323.1 24,207.8 
			187.6,184 		"/>
	</g>
	<g id="suche" class="st0">
		<circle class="st1" cx="260.7" cy="229.7" r="168"/>
		<line class="st1" x1="378.8" y1="351.3" x2="498.9" y2="471.5"/>
	</g>
	<g id="netzwerk" class="st0">
		<circle class="st1" cx="72.5" cy="398.4" r="49.8"/>
		<circle class="st1" cx="448.9" cy="398.4" r="49.8"/>
		<circle class="st1" cx="260.7" cy="84.9" r="49.8"/>
		<circle class="st1" cx="260.7" cy="298.8" r="49.8"/>
		<line class="st1" x1="116.8" y1="375.5" x2="216.4" y2="322.5"/>
		<line class="st1" x1="404.6" y1="374.7" x2="305" y2="321.7"/>
		<line class="st1" x1="260.7" y1="248.7" x2="260.7" y2="134.7"/>
	</g>
	<g id="chat" class="st0">
		<path class="st1" d="M498.9,101v242.8c0,17.8-14.4,32.3-32.3,32.3H260.4L93.7,455.7l51.1-79.6H56c-17.8,0-32.3-14.4-32.3-32.3V101
			c0-17.8,14.4-32.3,32.3-32.3h410.7C484.5,68.8,498.9,83.2,498.9,101z"/>
	</g>
	<g id="produkte" class="st0">
		<polygon class="st1" points="431.9,361 431.9,161.3 260.7,62.5 89.6,161.3 89.6,361 260.7,459.8 		"/>
		<polyline class="st1" points="89.6,163 260.7,261.8 431.9,163 		"/>
		<line class="st1" x1="260.7" y1="261.7" x2="260.7" y2="459.7"/>
	</g>
	<g id="Ebene_14" class="st0">
		<rect x="50.7" y="51.7" class="st1" width="416" height="416"/>
	</g>
	<g id="produkte_1_" class="st0">
		<rect x="50.7" y="51.7" class="st1" width="416" height="416"/>
		<rect x="154.3" y="108.7" class="st1" width="208.8" height="53.4"/>
	</g>
	<g id="Ebene_16" class="st0">
		<path class="st3" d="M260.8,29.7c0,0-166.1,180.1-166.1,322.4s138.2,146.6,166.1,146.6s166.1,0,166.1-146.6S260.8,29.7,260.8,29.7
			z"/>
		<line class="st3" x1="260.7" y1="29.7" x2="260.7" y2="305.7"/>
		<circle class="st3" cx="260.7" cy="335.7" r="38"/>
		<line class="st3" x1="50.7" y1="33.7" x2="261.2" y2="33.7"/>
		<line class="st3" x1="50.7" y1="100.2" x2="198.7" y2="100.2"/>
		<line class="st3" x1="50.7" y1="166.7" x2="154.7" y2="166.7"/>
	</g>
	<g id="Ebene_16_Kopie_2" class="st0">
		<path class="st3" d="M260.8,29.7c0,0-166.1,180.1-166.1,322.4c97.8,97.8,98.7,112.6,98.7,137c29.4,9,56.6,9.6,67.4,9.6
			c11.3,0,40.4,0,71.2-9.6c0-23.4,0-42.1,94.9-137C426.9,205.6,260.8,29.7,260.8,29.7z"/>
		<line class="st3" x1="260.7" y1="29.7" x2="260.7" y2="305.7"/>
		<circle class="st3" cx="260.7" cy="335.7" r="38"/>
		<path class="st3" d="M191.7,488.7"/>
	</g>
	<g id="Ebene_16_Kopie" class="st0">
		<path class="st3" d="M332.8,29.7c0,0-166.1,180.1-166.1,322.4s138.2,146.6,166.1,146.6s166.1,0,166.1-146.6S332.8,29.7,332.8,29.7
			z"/>
		<line class="st3" x1="332.7" y1="29.7" x2="332.7" y2="305.7"/>
		<circle class="st3" cx="332.7" cy="335.7" r="38"/>
		<line class="st3" x1="50.7" y1="33.7" x2="329.7" y2="33.7"/>
		<line class="st3" x1="50.7" y1="100.2" x2="273.7" y2="100.2"/>
		<line class="st3" x1="50.7" y1="166.7" x2="230.7" y2="166.7"/>
	</g>
	<g id="Ebene_14_1_">
		<polyline class="st5" points="399.1,162.1 399.1,467.7 118.3,467.7 118.3,51.7 289.1,51.7 		"/>
	</g>
	<polygon class="st5" points="289.1,51.7 289.1,161.7 399.1,161.7 	"/>
</g>
<g id="Ebene_2">
</g>
</svg>
