<?xml version="1.0" encoding="utf-8"?>
<!DOCTYPE svg PUBLIC "-//W3C//DTD SVG 1.1//EN" "http://www.w3.org/Graphics/SVG/1.1/DTD/svg11.dtd">
<svg version="1.1" xmlns="http://www.w3.org/2000/svg" xmlns:xlink="http://www.w3.org/1999/xlink" x="0px" y="0px" viewBox="0 0 1000 1000" enable-background="new 0 0 1000 1000" xml:space="preserve">
<g><path d="M988.6,636c-1.1-8.1-7.5-18-14.4-24.8l-0.1,0c-19.6-19.3-63-29.6-129.1-30.4c-44.7-0.5-98.6,3.5-155.3,11.4c-25.4-14.7-51.5-30.5-72-49.7c-55.2-51.5-101.3-123.1-130-201.8c1.9-7.3,3.4-13.8,5-20.4c0,0,31.1-176.6,22.9-236.4c-1.1-8.2-1.8-10.6-4-17l-2.7-6.9c-8.5-19.5-25-40.2-51.1-39L442,20.5c-29,0-52.7,14.8-58.9,37C364.3,127,383.8,231,419,365.7l-9,21.9c-25.3,61.6-56.9,123.5-84.8,178.3l-3.6,7.1c-29.4,57.5-56,106.2-80.1,147.6l-24.9,13.2c-1.8,1-44.5,23.6-54.6,29.6c-85,50.8-141.4,108.5-150.7,154.2c-3,14.6-0.8,33.3,14.4,41.9l24.1,12.2c10.5,5.2,21.5,7.9,32.8,7.9c60.6,0,130.9-75.5,227.8-244.6c111.8-36.4,239.2-66.7,350.8-83.4c85,47.9,189.7,81.2,255.7,81.2c11.7,0,21.8-1.1,30-3.3c12.7-3.4,23.3-10.6,29.9-20.4C989.5,689.8,992.1,663.2,988.6,636z M69.2,933.6c11.1-30.2,54.8-90,119.5-142.9c4-3.3,14-12.7,23.3-21.4C144.3,877.2,99,920.1,69.2,933.6z M452.2,51.7c19.5,0,30.6,49.1,31.5,95.1c0.9,46-9.8,78.3-23.2,102.2c-11.1-35.4-16.4-91.2-16.4-127.6C444.1,121.4,443.2,51.7,452.2,51.7z M338,680.2L338,680.2c13.5-24.3,27.7-49.9,42.1-77c35.1-66.5,57.4-118.5,73.9-161.3c32.9,59.9,73.8,110.7,122,151.5c6,5.1,12.3,10.2,19,15.3C497.1,628,412.5,651.6,338,680.2z M955.2,674.7L955.2,674.7c-5.9,3.7-23,5.8-34,5.8c-35.4,0-79.3-16.2-140.8-42.6c23.7-1.7,45.3-2.7,64.7-2.7c35.6,0,46.1-0.1,80.9,8.8C960.8,652.9,961.2,670.9,955.2,674.7z"/></g>
</svg>