<?xml version="1.0" encoding="UTF-8"?>
<svg id="Ebene_1" xmlns="http://www.w3.org/2000/svg" version="1.1" viewBox="0 0 521.4 521.4">
  <!-- Generator: Adobe Illustrator 29.5.1, SVG Export Plug-In . SVG Version: 2.1.0 Build 141)  -->
  <defs>
    <style>
      .st0, .st1, .st2, .st3 {
        stroke: #f0f;
      }

      .st0, .st1, .st3 {
        fill: none;
      }

      .st0, .st3 {
        stroke-miterlimit: 10;
      }

      .st4 {
        fill: #fff;
      }

      .st1, .st2 {
        stroke-linecap: round;
        stroke-linejoin: round;
      }

      .st1, .st2, .st3 {
        stroke-width: 20px;
      }

      .st2 {
        fill: #f0f;
      }

      .st5 {
        display: none;
      }
    </style>
  </defs>
  <g id="profil" class="st5">
    <path class="st1" d="M429.4,498.8H91.3s10.5-135.1,168.8-135.1,169.2,135.1,169.2,135.1h.1Z"/>
    <circle class="st1" cx="260.2" cy="193.2" r="170.5"/>
  </g>
  <g id="dokumente" class="st5">
    <path class="st0" d="M260.7,29.7"/>
    <path class="st3" d="M260.8,29.7S94.7,209.8,94.7,352.1s138.2,146.6,166.1,146.6,166.1,0,166.1-146.6S260.8,29.7,260.8,29.7Z"/>
  </g>
  <g id="projekte" class="st5">
    <polygon class="st3" points="260.7 34.7 22.7 435.7 498.7 435.7 260.7 34.7"/>
  </g>
  <g id="rechnungen" class="st5">
    <rect class="st3" x="22.7" y="144.7" width="476" height="231"/>
    <circle class="st3" cx="260.7" cy="259.7" r="77"/>
  </g>
  <g id="mobile" class="st5">
    <path class="st1" d="M379.4,498.7h-237.5c-17.8,0-32.3-14.4-32.3-32.3V53c0-17.8,14.4-32.3,32.3-32.3h237.5c17.8,0,32.3,14.4,32.3,32.3v413.5c0,17.8-14.4,32.3-32.3,32.3h0Z"/>
    <line class="st1" x1="209.7" y1="451.7" x2="311.7" y2="451.7"/>
  </g>
  <g id="zehnerle" class="st5">
    <circle class="st1" cx="260.7" cy="229.7" r="168"/>
    <polyline class="st1" points="424.2 272.3 499.1 347.2 402.4 369 378.2 468.1 303.3 393.2"/>
    <polyline class="st1" points="97.2 272.3 22.3 347.2 119 369 143.2 468.1 218.1 393.2"/>
  </g>
  <g id="einstellungen" class="st5">
    <path class="st1" d="M370.7,49.6v211.4l-110.5,63.8-110.5-63.8V50.1C74.2,90,22.7,169.3,22.7,260.7c0,131.4,106.6,238,238,238s238-106.6,238-238-51.9-171.4-128-211.1Z"/>
  </g>
  <g id="favouriten" class="st5">
    <polygon class="st2" points="260.7 35.9 333.8 184 497.3 207.8 379 323.1 407 486 260.7 409.1 114.4 486 142.4 323.1 24 207.8 187.6 184 260.7 35.9"/>
  </g>
  <g id="suche" class="st5">
    <circle class="st1" cx="260.7" cy="229.7" r="168"/>
    <line class="st1" x1="378.8" y1="351.3" x2="498.9" y2="471.5"/>
  </g>
  <g id="netzwerk" class="st5">
    <circle class="st1" cx="72.5" cy="398.4" r="49.8"/>
    <circle class="st1" cx="448.9" cy="398.4" r="49.8"/>
    <circle class="st1" cx="260.7" cy="84.9" r="49.8"/>
    <circle class="st1" cx="260.7" cy="298.8" r="49.8"/>
    <line class="st1" x1="116.8" y1="375.5" x2="216.4" y2="322.5"/>
    <line class="st1" x1="404.6" y1="374.7" x2="305" y2="321.7"/>
    <line class="st1" x1="260.7" y1="248.7" x2="260.7" y2="134.7"/>
  </g>
  <g id="chat" class="st5">
    <path class="st1" d="M498.9,101v242.8c0,17.8-14.4,32.3-32.3,32.3h-206.3l-166.7,79.6,51.1-79.6H56c-17.8,0-32.3-14.4-32.3-32.3V101c0-17.8,14.4-32.3,32.3-32.3h410.7c17.8,0,32.3,14.4,32.3,32.2h-.1Z"/>
  </g>
  <g id="produkte" class="st5">
    <polygon class="st1" points="431.9 361 431.9 161.3 260.7 62.5 89.6 161.3 89.6 361 260.7 459.8 431.9 361"/>
    <polyline class="st1" points="89.6 163 260.7 261.8 431.9 163"/>
    <line class="st1" x1="260.7" y1="261.7" x2="260.7" y2="459.7"/>
  </g>
  <g id="Ebene_14" class="st5">
    <rect class="st1" x="50.7" y="51.7" width="416" height="416"/>
  </g>
  <path class="st4" d="M42,482.9V39.2l219.4,130.3h182.8c0-.1,10-.1,10-.1,12,0,21.8,9.8,21.8,21.8v141.9c0,12-9.8,21.8-21.8,21.8h-196.7l-215.5,128ZM62,74.4v373.4l190.1-112.8h202.1c1,0,1.8-.8,1.8-1.8v-141.9c0-.8-.5-1.5-1.2-1.7h-198.8L62,74.4Z"/>
</svg>