<?xml version="1.0" encoding="UTF-8"?><svg id="a" xmlns="http://www.w3.org/2000/svg" viewBox="0 0 511.13 499.57"><defs><style>.b{fill:#101818;}</style></defs><path class="b" d="M193.09,123.12c7.82,0,15.3-1.47,22.18-4.13l93.92,163.99c1.85,3.23,5.22,5.03,8.69,5.03,1.69,0,3.39-.43,4.96-1.32,4.79-2.75,6.45-8.85,3.71-13.65L232.5,108.83c13.53-11.29,22.14-28.28,22.14-47.28C254.64,27.56,227.08,0,193.09,0s-61.56,27.56-61.56,61.56c0,18.96,8.58,35.92,22.07,47.21l-64.52,111.11c-6.73-2.53-14.02-3.92-21.64-3.92-34,0-61.56,27.56-61.56,61.56s27.56,61.56,61.56,61.56,61.56-27.56,61.56-61.56c0-19.21-8.8-36.36-22.59-47.65l64.41-110.92c6.91,2.68,14.41,4.17,22.27,4.17Zm-84.1,154.4c0,22.91-18.64,41.56-41.56,41.56s-41.56-18.64-41.56-41.56,18.64-41.56,41.56-41.56c3.95,0,7.76,.56,11.38,1.6,6.59,1.88,12.52,5.35,17.34,9.97,7.9,7.57,12.84,18.21,12.84,30Zm54.88-186.43c-7.61-7.54-12.34-17.99-12.34-29.52,0-22.91,18.64-41.56,41.56-41.56s41.56,18.64,41.56,41.56c0,11.53-4.72,21.97-12.32,29.5-4.75,4.7-10.62,8.27-17.17,10.26-3.82,1.16-7.87,1.79-12.07,1.79s-8.23-.63-12.04-1.79c-6.55-1.99-12.43-5.55-17.17-10.25Z"/><path class="b" d="M444.32,160.51c-34,0-61.56,27.56-61.56,61.56,0,19.18,8.77,36.3,22.51,47.59l-64.37,110.97c-6.9-2.68-14.4-4.16-22.24-4.16s-15.47,1.51-22.42,4.23l-94.43-163.33c-2.76-4.78-8.88-6.42-13.66-3.65-4.78,2.76-6.42,8.88-3.65,13.66l94.55,163.53c-13.42,11.29-21.95,28.2-21.95,47.11,0,34,27.56,61.56,61.56,61.56s61.56-27.56,61.56-61.56c0-18.98-8.59-35.94-22.09-47.23l64.46-111.12c6.76,2.55,14.08,3.96,21.73,3.96,34,0,61.56-27.56,61.56-61.56s-27.56-61.56-61.56-61.56Zm-84.1,277.51c0,22.91-18.64,41.56-41.56,41.56s-41.56-18.64-41.56-41.56c0-11.46,4.67-21.86,12.2-29.38,4.73-4.72,10.59-8.32,17.13-10.33,3.87-1.19,7.98-1.84,12.23-1.84s8.21,.63,12.02,1.78c6.55,1.98,12.43,5.55,17.18,10.24,7.62,7.54,12.36,17.99,12.36,29.53Zm84.1-174.4c-3.98,0-7.83-.57-11.48-1.63-6.59-1.9-12.5-5.38-17.32-10.01-7.86-7.57-12.76-18.18-12.76-29.92,0-22.91,18.64-41.56,41.56-41.56s41.56,18.64,41.56,41.56-18.64,41.56-41.56,41.56Z"/></svg>