<?xml version="1.0" encoding="UTF-8"?><svg id="Ebene_3" xmlns="http://www.w3.org/2000/svg" viewBox="0 0 504.205219477062201 503.790008544921875"><defs><style>.cls-1{fill:#fff;}</style></defs><path class="cls-1" d="M190.026071204732943,131.607443833033358c6.721819066529861,0,13.323196188493966-1.009455556429202,19.679827555369229-3.005135131883435l90.811476294197746,158.562242411760053c2.635361466403992,4.601171922338835,7.57088650238984,7.45937512285127,12.880771169679065,7.45937512285127,2.554805356186989,0,5.093378807017871-.673593901392451,7.34140718616618-1.947888984223027,7.103842088094098-4.078371818275627,9.570971018702039-13.154541261108534,5.523071736501151-20.245771943182262l-90.990811694620788-158.868778022177139c13.107354086433588-12.409804547769454,20.54808363770826-29.594263277710525,20.54808363770826-47.767661401179794C255.819897089733786,29.514974342259848,226.304862405816493,0,190.026071204732943,0c-36.284342633396591,0-65.803721916516224,29.519379283117814-65.803721916516224,65.803721916517134,0,18.123736940914569,7.409170865398664,35.273438877234184,20.463846686498982,47.676424817921543l-59.731661797422021,102.863997899194146c-6.189605664190822-1.884711270816297-12.61339729374231-2.837928404233026-19.150812260776547-2.837928404233026C29.519379283118724,213.506216229399797,0,243.02559551252034,0,279.30993814591784c0,36.284282291742784,29.519379283118724,65.803721916516224,65.803721916517134,65.803721916516224,36.2843426333975,0,65.803721916516224-29.51943962477344,65.803721916516224-65.803721916516224,0-18.390628083607226-7.587359774366632-35.71055383035673-20.955932887866766-48.149382714465901l59.579057750425818-102.60066691418433c6.405025374660909,2.023919470272631,13.045262522827215,3.047555315765749,19.795502509140533,3.047555315765749ZM215.454587946869651,91.466967698912413c-4.186262698476639,4.142152948237708-9.350723975784604,7.229292390073169-14.93268916814668,8.925194620537695-3.400252292713049,1.032506068865587-6.93180802799543,1.556150956109377-10.495827573990027,1.556150956109377-3.553278731296814,0-7.073731601951295-.523343178965661-10.463424104934347-1.55536651458624-5.606886296121957-1.703444937414133-10.770140740318311-4.785877730112588-14.93419770953642-8.914815855776396l-.738219814535114-.732004624008368c-6.462410289130275-6.768221799680759-10.008749730035561-15.581361965780161-10.008749730035561-24.932508333154146,0-19.930245426083275,16.214345932959986-36.144591359042352,36.144591359041442-36.144591359042352,19.930124742772023,0,36.144531017387635,16.214345932959077,36.144531017387635,36.144591359042352,0,9.696059270748265-3.805687876646516,18.806623457269779-10.716014275250927,25.653349750878078ZM29.649234525956672,279.30993814591784c0-19.930245426083275,16.214406274615612-36.144591359042352,36.144531017386726-36.144591359042352,3.350168718568966,0,6.676261116555906.467466805885124,9.88583377759187,1.389607986669944,5.626557675845106,1.605148380450373,10.840619794051236,4.603826955185468,15.087344831433256,8.674294016579552,7.204190261346412,6.903326766554528,11.171412750018135,16.168848324639839,11.171412750018135,26.090585387310057-.00585314059299,19.925176727012513-16.218026773951351,36.134695327524241-36.144591359043261,36.134695327524241-19.930124742771113,0-36.144531017386726-16.214406274613793-36.144531017386726-36.144591359041442Z"/><path class="cls-1" d="M438.401497560545977,158.686244514005011c-36.284282291740965,0-65.803721916516224,29.519379283117814-65.803721916516224,65.803721916516224,0,18.351466349125985,7.560869787561387,35.648703633372861,20.881893676452819,48.085118851258812l-59.545990523160071,102.653767571106073c-6.383362720303921-2.016557788288992-13.012798712117728-3.036392109479493-19.764366214854817-3.036392109479493-6.807745584095755,0-13.497161181570846,1.039264334291147-19.942253415545565,3.094139073882616l-91.300666096096393-157.917431480082996c-2.638137182562787-4.568889136597136-7.560206029350411-7.40892949877616-12.843962759767237-7.409412232021168-2.597104856758051-.000241366622504-5.162470002674127.690730931582948-7.418644505326483,1.998093241678362-3.425414763094523,1.977878787054578-5.878846137883556,5.178460541405911-6.90163720019882,9.008466105256957-1.022429012381508,3.828315997494428-.491663809778402,7.824321455884274,1.494542125748012,11.25178783526826l91.464916082622949,158.194158312637228c-12.985282917168661,12.395503575393377-20.356016147953596,29.509241884979929-20.356016147953596,47.574025028379765,0,36.284342633396591,29.519379283118724,65.803721916516224,65.803721916517134,65.803721916516224,36.284282291740965,0,65.803721916516224-29.519379283119633,65.803721916516224-65.803721916516224,0-18.13556390541271-7.416170497446728-35.293110256958244-20.484242166088734-47.698811572146951l59.671863216728525-102.865928832174177c6.230094915094014,1.907279050008583,12.684419422375868,2.872142122952937,19.240842010922279,2.872142122952937,36.28434263339841,0,65.803721916516224-29.519379283117814,65.803721916516224-65.803721916516224s-29.519379283117814-65.803721916516224-65.803721916516224-65.803721916516224ZM438.401075168956595,260.624661758047296c-3.38208945437691,0-6.736663113804752-.476156004291624-9.970553462044336-1.415313531953871-5.617144377572913-1.619509694482986-10.82764633809893-4.631946166693524-15.077448799916965-8.714119509269949-7.153865320580735-6.889991260669376-11.096227047146385-16.130591714994807-11.096227047146385-26.015158317819441,0-19.930245426083275,16.214406274613793-36.144591359043261,36.144591359041442-36.144591359043261,19.930245426083275,0,36.144591359043261,16.214345932959986,36.144591359043261,36.144591359043261,0,19.926986976681292-16.216156182628765,36.140669151429393-36.144953408977017,36.144591359043261ZM350.313903941509125,437.986286628405651c0,19.93018508442583-16.214406274613793,36.144591359041442-36.144591359041442,36.144591359041442-19.930245426083275,0-36.144591359043261-16.214406274615612-36.144591359043261-36.144591359041442,0-9.641510414092409,3.768457075146216-18.714783457457088,10.61120081948502-25.548475953457455,4.175159833846919-4.166349952130986,9.326104580302854-7.273884873557108,14.894553241811082-8.985234567853695,3.454982174336692-1.062435530038783,7.034207817538118-1.60098480621491,10.638837297747159-1.60098480621491,3.582122042671472,0,7.001985373450225.506628540366364,10.45497627315126,1.548909957438809,5.578646401305377,1.686368248880171,10.745581686493097,4.767171816878545,14.940171533440662,8.908842031871245,6.930540853229104,6.857768816582393,10.74944355244952,15.977987667998605,10.74944355244952,25.676943338216006Z"/></svg>