<?xml version="1.0" encoding="UTF-8"?>
<svg id="Ebene_2" xmlns="http://www.w3.org/2000/svg" version="1.1" viewBox="0 0 509.1 509.1">
  <!-- Generator: Adobe Illustrator 29.6.1, SVG Export Plug-In . SVG Version: 2.1.1 Build 9)  -->
  <defs>
    <style>
      .st0 {
        fill: #fff;
      }
    </style>
  </defs>
  <g>
    <path class="st0" d="M299.6,87.5c59.3,16,106.1,62.8,122.1,122.1h30.9c-17.2-75.9-77.1-135.7-153-153v30.9Z"/>
    <path class="st0" d="M87.5,209.6c16-59.3,62.8-106.1,122.1-122.1v-30.9c-75.9,17.2-135.7,77.1-153,153h30.9Z"/>
    <path class="st0" d="M209.6,421.6c-59.3-16-106.1-62.8-122.1-122.1h-30.9c17.2,75.9,77.1,135.7,153,153v-30.9Z"/>
    <path class="st0" d="M421.6,299.6c-16,59.3-62.8,106.1-122.1,122.1v30.9c75.9-17.2,135.7-77.1,153-153h-30.9Z"/>
  </g>
  <polygon class="st0" points="508.1 239.6 269.6 239.6 269.6 1.1 239.6 1.1 239.6 239.6 1.1 239.6 1.1 269.6 239.6 269.6 239.6 508.1 269.6 508.1 269.6 269.6 508.1 269.6 508.1 239.6"/>
</svg>