<?xml version="1.0" encoding="UTF-8"?>
<svg id="Ebene_2" xmlns="http://www.w3.org/2000/svg" version="1.1" viewBox="0 0 509.1 509.1">
  <!-- Generator: Adobe Illustrator 29.6.1, SVG Export Plug-In . SVG Version: 2.1.1 Build 9)  -->
  <defs>
    <style>
      .st0 {
        fill: #fff;
      }
    </style>
  </defs>
  <g id="Ebene_14_Kopie">
    <path class="st0" d="M493.2,508.2H15.9c-8.3,0-15-6.7-15-15V15.9C.9,7.6,7.6.9,15.9.9h477.3c8.3,0,15,6.7,15,15v477.3c0,8.3-6.7,15-15,15ZM30.9,478.2h447.3V30.9H30.9v447.3Z"/>
    <path class="st0" d="M384.4,192.6H124.7c-8.3,0-15-6.7-15-15v-81.3c0-8.3,6.7-15,15-15h259.6c8.3,0,15,6.7,15,15v81.3c0,8.3-6.7,15-15,15ZM139.7,162.6h229.6v-51.3h-229.6v51.3Z"/>
  </g>
</svg>