<?xml version="1.0" encoding="UTF-8"?><svg id="Ebene_2" xmlns="http://www.w3.org/2000/svg" viewBox="0 0 509.14 509.14"><defs><style>.cls-1{fill:#fff;}</style></defs><path class="cls-1" d="M254.57,509.14c-68,0-131.93-26.48-180.01-74.56S0,322.57,0,254.57,26.48,122.64,74.56,74.56,186.57,0,254.57,0s131.93,26.48,180.01,74.56,74.56,112.01,74.56,180.01-26.48,131.93-74.56,180.01-112.01,74.56-180.01,74.56ZM254.57,30c-123.83,0-224.57,100.74-224.57,224.57s100.74,224.57,224.57,224.57,224.57-100.74,224.57-224.57S378.4,30,254.57,30Z"/><path class="cls-1" d="M186.31,359.8v-210.47l182.27,105.23-182.27,105.23ZM216.31,201.3v106.54l92.27-53.27-92.27-53.27Z"/></svg>