<?xml version="1.0" encoding="UTF-8"?>
<svg id="Ebene_3" xmlns="http://www.w3.org/2000/svg" version="1.1" viewBox="0 0 509.1 509.1">
  <!-- Generator: Adobe Illustrator 29.6.1, SVG Export Plug-In . SVG Version: 2.1.1 Build 9)  -->
  <defs>
    <style>
      .st0 {
        fill: #fff;
      }
    </style>
  </defs>
  <path class="st0" d="M502.5,483.3l-131.3-131.3c33.4-37.4,53.7-86.6,53.7-140.5C424.8,94.9,330,.2,213.5.2S2.2,94.9,2.2,211.5s94.8,211.3,211.3,211.3,99.3-18.8,136.1-49.8l131.6,131.6c2.9,2.9,6.8,4.4,10.6,4.4s7.7-1.5,10.6-4.4c5.9-5.9,5.9-15.4,0-21.2ZM32.2,211.5c0-100,81.3-181.3,181.3-181.3s181.3,81.3,181.3,181.3-81.3,181.3-181.3,181.3S32.2,311.4,32.2,211.5Z"/>
</svg>