<?xml version="1.0" encoding="UTF-8"?>
<svg id="Ebene_2" xmlns="http://www.w3.org/2000/svg" version="1.1" viewBox="0 0 509.1 509.1">
  <!-- Generator: Adobe Illustrator 29.6.1, SVG Export Plug-In . SVG Version: 2.1.1 Build 9)  -->
  <defs>
    <style>
      .st0 {
        fill: #fff;
      }
    </style>
  </defs>
  <g>
    <path class="st0" d="M70.5,89.3c18.8,0,34,15.3,34,34s-15.3,34-34,34-34-15.3-34-34,15.3-34,34-34M70.5,59.3c-35.4,0-64,28.7-64,64s28.7,64,64,64,64-28.7,64-64-28.7-64-64-64h0Z"/>
    <path class="st0" d="M438.6,89.3c18.8,0,34,15.3,34,34s-15.3,34-34,34-34-15.3-34-34,15.3-34,34-34M438.6,59.3c-35.4,0-64,28.7-64,64s28.7,64,64,64,64-28.7,64-64-28.7-64-64-64h0Z"/>
    <path class="st0" d="M258.3,410.5c18.8,0,34,15.3,34,34s-15.3,34-34,34-34-15.3-34-34,15.3-34,34-34M258.3,380.5c-35.4,0-64,28.7-64,64s28.7,64,64,64,64-28.7,64-64-28.7-64-64-64h0Z"/>
  </g>
  <g>
    <path class="st0" d="M143,71.7c32.5-22.8,71.1-35,111.6-35s79.1,12.3,111.6,35c7.2-10,16.4-18.5,27-24.9C354.5,17.8,306.6.6,254.6.6s-100,17.2-138.6,46.2c10.6,6.3,19.8,14.8,27,24.9Z"/>
    <path class="st0" d="M169.3,444.5c0-12.1,2.4-23.7,6.9-34.2-21.9-9.6-42-23.3-59.4-40.7-36.8-36.8-57.1-85.8-57.1-137.9s.3-13.3,1-19.8c-12.6-1.4-24.4-5.5-34.9-11.6-1.4,10.3-2.1,20.8-2.1,31.4,0,97.5,60.4,180.8,145.7,214.8,0-.6,0-1.3,0-1.9Z"/>
    <path class="st0" d="M483.4,200.2c-10.5,6.1-22.3,10.2-34.9,11.6.7,6.5,1,13.2,1,19.8,0,52.1-20.3,101.1-57.1,137.9-15.8,15.8-33.7,28.5-53.2,37.9,5,10.9,7.9,23.1,8.1,35.9,81.4-35.7,138.3-117,138.3-211.6s-.7-21.1-2.1-31.4Z"/>
  </g>
</svg>